<?xml version="1.0" encoding="UTF-8" standalone="no"?>
<svg
   xmlns:dc="http://purl.org/dc/elements/1.1/"
   xmlns:cc="http://creativecommons.org/ns#"
   xmlns:rdf="http://www.w3.org/1999/02/22-rdf-syntax-ns#"
   xmlns:svg="http://www.w3.org/2000/svg"
   xmlns="http://www.w3.org/2000/svg"
   xmlns:sodipodi="http://sodipodi.sourceforge.net/DTD/sodipodi-0.dtd"
   xmlns:inkscape="http://www.inkscape.org/namespaces/inkscape"
   viewBox="0 0 432 432"
   version="1.1"
   id="svg60"
   sodipodi:docname="quizgrading logo-08.svg"
   inkscape:version="1.0.2-2 (e86c870879, 2021-01-15)">
  <metadata
     id="metadata64">
    <rdf:RDF>
      <cc:Work
         rdf:about="">
        <dc:format>image/svg+xml</dc:format>
        <dc:type
           rdf:resource="http://purl.org/dc/dcmitype/StillImage" />
      </cc:Work>
    </rdf:RDF>
  </metadata>
  <sodipodi:namedview
     pagecolor="#ffffff"
     bordercolor="#666666"
     borderopacity="1"
     objecttolerance="10"
     gridtolerance="10"
     guidetolerance="10"
     inkscape:pageopacity="0"
     inkscape:pageshadow="2"
     inkscape:window-width="2380"
     inkscape:window-height="1363"
     id="namedview62"
     showgrid="false"
     inkscape:zoom="2.3333333"
     inkscape:cx="216"
     inkscape:cy="216"
     inkscape:window-x="0"
     inkscape:window-y="0"
     inkscape:window-maximized="0"
     inkscape:current-layer="svg60" />
  <defs
     id="defs7">
    <style
       id="style2">.cls-1,.cls-9{fill:none;}.cls-2,.cls-5{fill:#d6c4b8;}.cls-2{stroke:#c3955c;}.cls-2,.cls-9{stroke-miterlimit:10;}.cls-3{clip-path:url(#clip-path);}.cls-4{fill:#c7ac8f;}.cls-6{fill:#a02932;}.cls-7{fill:#00627d;}.cls-8{font-size:20.7px;fill:#3a2f2d;font-family:ITCAvantGardePro-Bold, ITC Avant Garde Gothic Pro;font-weight:700;}.cls-9{stroke:#3a2f2d;stroke-width:8px;}</style>
    <clipPath
       id="clip-path">
      <polygon
         class="cls-1"
         points="367.66 216.51 291.83 347.85 140.17 347.85 64.34 216.51 140.17 85.17 291.83 85.17 367.66 216.51"
         id="polygon4" />
    </clipPath>
  </defs>
  <g
     id="Layer_3"
     data-name="Layer 3"
     inkscape:export-xdpi="300.207"
     inkscape:export-ydpi="300.207">
    <polygon
       class="cls-2"
       points="367.66 216.51 291.83 347.85 140.17 347.85 64.34 216.51 140.17 85.17 291.83 85.17 367.66 216.51"
       id="polygon9" />
    <g
       class="cls-3"
       clip-path="url(#clip-path)"
       id="g53">
      <path
         class="cls-4"
         d="M392.26,122.59a72.56,72.56,0,1,0-86,71.3l13.4,30.16,13.41-30.16A72.57,72.57,0,0,0,392.26,122.59Z"
         id="path11" />
      <path
         class="cls-5"
         d="M306.63,140.21c0-6.48,3.58-12.38,10.07-18.52s9.83-10.06,9.83-14.58-2.2-7.17-6.71-7.17c-5.44,0-8,2.89-8,11.11H290.65v-2.2c0-18.29,14.7-28.71,30.33-28.71,16.9,0,27.77,12.39,27.77,24.54,0,7.87-3.47,14.12-12.38,22-6,5.44-9.26,9.14-9.61,13.54Zm0,27.2V147.74h20.13v19.67Z"
         id="path13" />
      <path
         class="cls-4"
         d="M214.56,85.33A56.21,56.21,0,1,0,148,140.57l10.39,23.36,10.38-23.36A56.22,56.22,0,0,0,214.56,85.33Z"
         id="path15" />
      <path
         class="cls-5"
         d="M148.22,99c0-5,2.78-9.59,7.8-14.34s7.63-7.8,7.63-11.3-1.71-5.56-5.2-5.56c-4.22,0-6.19,2.24-6.19,8.61H135.85V74.68c0-14.16,11.39-22.23,23.49-22.23,13.09,0,21.52,9.59,21.52,19,0,6.09-2.69,10.94-9.59,17-4.67,4.22-7.18,7.09-7.45,10.49Zm0,21.07V104.81h15.6v15.24Z"
         id="path17" />
      <path
         class="cls-4"
         d="M342.78,275.2a49.3,49.3,0,1,0-58.41,48.44l9.11,20.5,9.11-20.5A49.3,49.3,0,0,0,342.78,275.2Z"
         id="path19" />
      <path
         class="cls-5"
         d="M284.6,287.17c0-4.41,2.43-8.42,6.84-12.58s6.68-6.85,6.68-9.91-1.49-4.88-4.56-4.88c-3.7,0-5.43,2-5.43,7.55H273.74v-1.49c0-12.43,10-19.51,20.61-19.51,11.48,0,18.87,8.42,18.87,16.68,0,5.34-2.36,9.59-8.41,14.94-4.09,3.69-6.3,6.21-6.53,9.2Zm0,18.48V292.28h13.68v13.37Z"
         id="path21" />
      <path
         class="cls-4"
         d="M180.53,262.14a61.29,61.29,0,1,0-72.61,60.23l11.32,25.48,11.33-25.48A61.29,61.29,0,0,0,180.53,262.14Z"
         id="path23" />
      <path
         class="cls-5"
         d="M108.2,277c0-5.48,3-10.47,8.5-15.65s8.31-8.5,8.31-12.32-1.86-6.06-5.67-6.06c-4.59,0-6.75,2.45-6.75,9.39H94.7v-1.86c0-15.45,12.42-24.25,25.62-24.25,14.27,0,23.46,10.47,23.46,20.73,0,6.65-2.93,11.93-10.46,18.58-5.08,4.59-7.82,7.72-8.11,11.44Zm0,23V283.38h17V300Z"
         id="path25" />
      <path
         class="cls-6"
         d="M216,138.38a64.72,64.72,0,0,0-12,128.33l12,26.91,12-26.91a64.72,64.72,0,0,0-12-128.33Zm9.88,105.37H206.12V224.12h19.76Zm0-28.18H206.12V158.28h19.76Z"
         id="path27" />
      <path
         class="cls-7"
         d="M325.05,216.43a19.13,19.13,0,1,0-22.67,18.8l3.54,8,3.53-8A19.13,19.13,0,0,0,325.05,216.43Z"
         id="path29" />
      <path
         class="cls-5"
         d="M302.47,221.07c0-1.7.94-3.26,2.65-4.88s2.6-2.65,2.6-3.84-.58-1.89-1.77-1.89c-1.44,0-2.11.76-2.11,2.93h-5.58v-.58c0-4.83,3.87-7.57,8-7.57,4.46,0,7.33,3.26,7.33,6.47,0,2.07-.92,3.72-3.27,5.79-1.59,1.44-2.44,2.42-2.53,3.57Zm0,7.18v-5.19h5.31v5.19Z"
         id="path31" />
      <path
         class="cls-7"
         d="M150.41,170.6a19.13,19.13,0,1,0-22.67,18.8l3.54,7.95,3.53-7.95A19.13,19.13,0,0,0,150.41,170.6Z"
         id="path33" />
      <path
         class="cls-5"
         d="M127.83,175.25c0-1.71,1-3.27,2.65-4.89s2.6-2.65,2.6-3.84-.58-1.89-1.77-1.89c-1.44,0-2.11.76-2.11,2.93h-5.58V167c0-4.83,3.87-7.57,8-7.57,4.46,0,7.33,3.26,7.33,6.47,0,2.07-.92,3.72-3.27,5.79-1.58,1.44-2.44,2.42-2.53,3.58Zm0,7.17v-5.19h5.31v5.19Z"
         id="path35" />
      <path
         class="cls-7"
         d="M188.09,257a29.74,29.74,0,1,0-35.23,29.22l5.5,12.36,5.49-12.36A29.73,29.73,0,0,0,188.09,257Z"
         id="path37" />
      <path
         class="cls-5"
         d="M153,264.2c0-2.65,1.47-5.07,4.12-7.58s4-4.13,4-6-.9-2.94-2.75-2.94c-2.23,0-3.27,1.18-3.27,4.55h-8.68v-.9c0-7.49,6-11.76,12.43-11.76,6.92,0,11.38,5.07,11.38,10,0,3.23-1.42,5.79-5.07,9-2.47,2.23-3.8,3.74-3.94,5.54Zm0,11.15v-8.06h8.25v8.06Z"
         id="path39" />
      <path
         class="cls-7"
         d="M296.9,140.89a30.53,30.53,0,1,0-36.17,30l5.64,12.69L272,170.89A30.54,30.54,0,0,0,296.9,140.89Z"
         id="path41" />
      <path
         class="cls-5"
         d="M260.87,148.3c0-2.72,1.51-5.21,4.23-7.79s4.14-4.23,4.14-6.13-.92-3-2.82-3c-2.29,0-3.36,1.22-3.36,4.67h-8.91v-.92c0-7.7,6.18-12.08,12.76-12.08,7.11,0,11.68,5.21,11.68,10.33,0,3.31-1.46,5.94-5.21,9.25-2.53,2.29-3.89,3.84-4,5.69Zm0,11.45v-8.28h8.47v8.28Z"
         id="path43" />
      <path
         class="cls-7"
         d="M181.87,118.62a13.18,13.18,0,1,0-15.61,12.95l2.44,5.48,2.43-5.48A13.18,13.18,0,0,0,181.87,118.62Z"
         id="path45" />
      <path
         class="cls-5"
         d="M166.32,121.82a4.74,4.74,0,0,1,1.83-3.36c1.18-1.09,1.79-1.83,1.79-2.65s-.4-1.3-1.22-1.3c-1,0-1.45.53-1.45,2h-3.85v-.4a5.21,5.21,0,0,1,5.51-5.21,4.75,4.75,0,0,1,5,4.45c0,1.43-.63,2.57-2.25,4-1.09,1-1.68,1.66-1.74,2.46Zm0,4.94v-3.57H170v3.57Z"
         id="path47" />
      <path
         class="cls-7"
         d="M285.37,282.39a13.18,13.18,0,1,0-15.61,12.95l2.43,5.47,2.44-5.47A13.18,13.18,0,0,0,285.37,282.39Z"
         id="path49" />
      <path
         class="cls-5"
         d="M269.82,285.59a4.72,4.72,0,0,1,1.83-3.36c1.17-1.09,1.78-1.83,1.78-2.65s-.4-1.3-1.22-1.3c-1,0-1.45.52-1.45,2h-3.84v-.4a5.21,5.21,0,0,1,5.5-5.22,4.77,4.77,0,0,1,5.05,4.46c0,1.43-.63,2.56-2.25,4-1.09,1-1.68,1.66-1.75,2.46Zm0,4.94V287h3.65v3.57Z"
         id="path51" />
    </g>
    <text
       class="cls-8"
       transform="translate(147.94 334.61)"
       id="text55">QUIZGRADER</text>
    <polygon
       class="cls-9"
       points="367.66 216.51 291.83 347.85 140.17 347.85 64.34 216.51 140.17 85.17 291.83 85.17 367.66 216.51"
       id="polygon57" />
  </g>
</svg>
